Coordinates
version=1
nRows=16
nColumns=40
inDegrees=yes

Units are S.I. units (second, meters, Newtons, ...)
If the header above contains a line with 'inDegrees', this indicates whether rotational values are in degrees (yes) or radians (no).

endheader
time	pelvis_tilt	pelvis_list	pelvis_rotation	pelvis_tx	pelvis_ty	pelvis_tz	hip_flexion_r	hip_adduction_r	hip_rotation_r	knee_angle_r	knee_angle_r_beta	ankle_angle_r	subtalar_angle_r	mtp_angle_r	hip_flexion_l	hip_adduction_l	hip_rotation_l	knee_angle_l	knee_angle_l_beta	ankle_angle_l	subtalar_angle_l	mtp_angle_l	lumbar_extension	lumbar_bending	lumbar_rotation	arm_flex_r	arm_add_r	arm_rot_r	elbow_flex_r	pro_sup_r	wrist_flex_r	wrist_dev_r	arm_flex_l	arm_add_l	arm_rot_l	elbow_flex_l	pro_sup_l	wrist_flex_l	wrist_dev_l
      6.00000000	    -66.58359419	     -3.28241057	     -1.88603373	     -0.45338382	      0.70396034	      0.61140346	    112.35393274	    -10.05514992	     -4.24666543	     51.95543026	      0.90679332	     11.15984534	      0.00000000	      0.00000000	    114.69918323	    -15.59870477	      0.68538950	     52.37439422	      0.91410562	     10.03975942	      0.00000000	      0.00000000	    -24.02778116	     -2.61059739	     -0.20991189	     73.93218317	     -0.69655894	      2.93190744	     14.47762460	     32.09835957	      0.00000000	      0.00000000	     76.70755006	     -5.17098150	     -1.42650063	     13.42156273	     31.79765703	      0.00000000	      0.00000000
      6.00500000	    -66.33070934	     -2.99572513	     -1.91290180	     -0.45367741	      0.70251076	      0.61180656	    112.50205364	     -9.87996814	     -3.76036896	     52.44144726	      0.91527592	     11.10320746	      0.00000000	      0.00000000	    114.66384780	    -15.82296489	      0.39640899	     52.81212242	      0.92174542	     10.11740014	      0.00000000	      0.00000000	    -24.03424233	     -3.01389723	     -0.16717383	     73.74302370	     -0.84991408	      2.72845438	     14.36378308	     33.99455183	      0.00000000	      0.00000000	     76.67799865	     -5.32248460	      0.94404766	     12.99221903	     33.51330261	      0.00000000	      0.00000000
      6.01000000	    -66.31976965	     -3.00729430	     -1.88904375	     -0.45410074	      0.70079786	      0.61178844	    112.77730872	     -9.92002653	     -3.66521064	     52.87442309	      0.92283277	     11.26978027	      0.00000000	      0.00000000	    114.93936313	    -15.78449339	      0.53479694	     53.23036873	      0.92904520	     10.30282034	      0.00000000	      0.00000000	    -23.72658551	     -2.91903003	     -0.30201536	     74.41224157	     -0.43650619	      2.61752072	     12.67260717	     35.23776191	      0.00000000	      0.00000000	     76.20435926	     -5.33819403	     -0.75701913	     13.40071585	     34.42316192	      0.00000000	      0.00000000
      6.01500000	    -66.10502480	     -3.03585317	     -1.85131382	     -0.45437656	      0.69935996	      0.61169296	    112.84232573	     -9.95635032	     -3.54482210	     53.30541276	      0.93035496	     11.45263838	      0.00000000	      0.00000000	    115.00956180	    -15.76796105	      0.60900471	     53.64423003	      0.93626844	     10.46162775	      0.00000000	      0.00000000	    -23.70204187	     -2.86385712	     -0.27956531	     74.17017114	     -0.51742605	      2.60273225	     12.79929661	     36.10301467	      0.00000000	      0.00000000	     76.19557072	     -5.25392853	     -0.93808957	     13.11855617	     34.94117497	      0.00000000	      0.00000000
      6.02000000	    -65.88602371	     -3.03993172	     -1.84825162	     -0.45453164	      0.69794174	      0.61175009	    112.89966021	     -9.96995875	     -3.47986573	     53.74952907	      0.93810625	     11.66143135	      0.00000000	      0.00000000	    115.07648511	    -15.83074394	      0.62256984	     54.08015299	      0.94387673	     10.62550406	      0.00000000	      0.00000000	    -23.67281750	     -2.85820831	     -0.25855935	     73.87926240	     -0.59608061	      2.70739309	     12.98807745	     36.91705263	      0.00000000	      0.00000000	     75.98555256	     -5.32148159	     -0.48264194	     13.12274427	     35.55395619	      0.00000000	      0.00000000
      6.02500000	    -65.79625472	     -2.97135761	     -1.77867333	     -0.45496189	      0.69634516	      0.61169735	    113.13002872	     -9.99512199	     -3.22415861	     54.18913618	      0.94577885	     11.80851922	      0.00000000	      0.00000000	    115.23309751	    -15.78788984	      0.65181994	     54.47413006	      0.95075293	     10.79065919	      0.00000000	      0.00000000	    -23.45157160	     -2.88259214	     -0.27935771	     73.84717725	     -0.54605526	      2.32474526	     12.62338546	     37.56878655	      0.00000000	      0.00000000	     75.71288035	     -5.15292869	     -0.74084033	     13.51417615	     36.11941895	      0.00000000	      0.00000000
      6.03000000	    -65.55613277	     -3.14587891	     -1.69872715	     -0.45517245	      0.69501413	      0.61151243	    113.12126161	    -10.15728448	     -3.32141846	     54.62265621	      0.95334520	     12.00531329	      0.00000000	      0.00000000	    115.28891252	    -15.65456540	      0.89450529	     54.83123550	      0.95698559	     10.91939258	      0.00000000	      0.00000000	    -23.50282471	     -2.67611804	     -0.28698048	     73.19844152	     -0.72775831	      2.33855904	     13.58804843	     38.18116745	      0.00000000	      0.00000000	     75.58965383	     -5.36210777	      0.24476344	     13.10995875	     36.58938508	      0.00000000	      0.00000000
      6.03500000	    -65.44394100	     -3.12151323	     -1.49238533	     -0.45552827	      0.69351152	      0.61109930	    113.32051693	    -10.36517778	     -3.11219775	     55.07525211	      0.96124449	     12.17918747	      0.00000000	      0.00000000	    115.38607942	    -15.47675596	      0.82785439	     55.16165649	      0.96275253	     11.04611980	      0.00000000	      0.00000000	    -23.35143227	     -2.59521769	     -0.44562679	     72.92728064	     -0.76226461	      2.31939475	     13.70381084	     38.38303901	      0.00000000	      0.00000000	     75.35469808	     -5.29206877	      0.08752589	     13.25539611	     36.81612182	      0.00000000	      0.00000000
      6.04000000	    -65.31221550	     -3.06915980	     -1.56704015	     -0.45568297	      0.69210181	      0.61126809	    113.44083849	    -10.26507463	     -2.97959459	     55.45421572	      0.96785865	     12.35495246	      0.00000000	      0.00000000	    115.51329144	    -15.62820133	      0.81841018	     55.58183969	      0.97008611	     11.24231184	      0.00000000	      0.00000000	    -23.20820252	     -2.62820695	     -0.45680731	     73.45294133	     -0.51639324	      2.71616784	     12.41353917	     37.99429865	      0.00000000	      0.00000000	     75.49842988	     -5.01049690	     -2.58413106	     12.91054538	     35.94049778	      0.00000000	      0.00000000
      6.04500000	    -65.07605425	     -3.15201912	     -1.48027591	     -0.45595850	      0.69079088	      0.61115135	    113.45439726	    -10.36739949	     -2.92710654	     55.85939528	      0.97493037	     12.52958474	      0.00000000	      0.00000000	    115.54389726	    -15.51036734	      1.00651008	     55.93527068	      0.97625464	     11.36018214	      0.00000000	      0.00000000	    -23.22900453	     -2.53795591	     -0.40744128	     72.84131564	     -0.74482765	      2.48617153	     13.28298236	     38.48126530	      0.00000000	      0.00000000	     75.35708054	     -5.03788017	     -1.46401697	     12.82515199	     36.43295805	      0.00000000	      0.00000000
      6.05000000	    -64.99278607	     -2.99782302	     -1.36558710	     -0.45630924	      0.68936030	      0.61102380	    113.68527180	    -10.41100697	     -2.59020850	     56.25320076	      0.98180357	     12.68143812	      0.00000000	      0.00000000	    115.62676609	    -15.47701215	      0.85999703	     56.25467201	      0.98182925	     11.52902671	      0.00000000	      0.00000000	    -23.04259344	     -2.65546287	     -0.51632787	     72.54895572	     -0.81001917	      2.47925869	     13.46243168	     38.66049158	      0.00000000	      0.00000000	     75.16316902	     -4.92193404	     -1.50578896	     13.05546739	     36.65829769	      0.00000000	      0.00000000
      6.05500000	    -64.87161810	     -3.12063804	     -1.36172978	     -0.45655006	      0.68801949	      0.61093563	    113.76082572	    -10.46287031	     -2.63112228	     56.59979743	      0.98785282	     12.81542459	      0.00000000	      0.00000000	    115.79475989	    -15.45205397	      1.03478988	     56.61510166	      0.98811993	     11.61146158	      0.00000000	      0.00000000	    -22.93429180	     -2.45905955	     -0.55626952	     73.00966597	     -0.53798329	      2.54875018	     12.37068060	     38.46008199	      0.00000000	      0.00000000	     74.97362976	     -4.95611721	     -2.85862441	     12.97664562	     36.24664826	      0.00000000	      0.00000000
      6.06000000	    -64.68445622	     -3.11151500	     -1.28202238	     -0.45679546	      0.68679293	      0.61083275	    113.81997588	    -10.52954396	     -2.50324573	     56.96518757	      0.99423008	     12.99353927	      0.00000000	      0.00000000	    115.81518833	    -15.40339151	      1.05390851	     56.92857684	      0.99359110	     11.75678655	      0.00000000	      0.00000000	    -22.90216547	     -2.44918311	     -0.62111599	     72.85240555	     -0.57992669	      2.69770863	     12.41953020	     38.46662905	      0.00000000	      0.00000000	     74.87444018	     -4.97031448	     -2.62669450	     12.92025092	     36.11707503	      0.00000000	      0.00000000
      6.06500000	    -64.48903235	     -3.08846311	     -1.12367331	     -0.45707977	      0.68550644	      0.61062392	    113.91111676	    -10.67111321	     -2.31948068	     57.37839933	      1.00144199	     13.15132176	      0.00000000	      0.00000000	    115.83247551	    -15.29326491	      1.01176192	     57.26446590	      0.99945347	     11.85691296	      0.00000000	      0.00000000	    -22.88341919	     -2.44447870	     -0.70981132	     72.27345179	     -0.78940140	      2.72580807	     13.23631911	     38.75996812	      0.00000000	      0.00000000	     74.75859280	     -5.01865861	     -1.56769340	     12.81756276	     36.41926819	      0.00000000	      0.00000000
      6.07000000	    -64.36424254	     -3.05115605	     -1.10165628	     -0.45730639	      0.68430480	      0.61057851	    114.01061315	    -10.67021937	     -2.17780622	     57.69554423	      1.00697721	     13.28470661	      0.00000000	      0.00000000	    115.90890317	    -15.31713081	      0.99498173	     57.57696532	      1.00490762	     11.99189724	      0.00000000	      0.00000000	    -22.77897754	     -2.44408762	     -0.78567369	     72.60034996	     -0.60180761	      2.79055138	     12.39009944	     38.65935077	      0.00000000	      0.00000000	     74.54540650	     -5.01094274	     -2.30756434	     12.98666009	     36.28892703	      0.00000000	      0.00000000
      6.07500000	    -64.17512130	     -3.05677152	     -0.95871978	     -0.45759464	      0.68311184	      0.61036722	    114.07893521	    -10.81396084	     -2.04238771	     58.07128126	      1.01353506	     13.41299254	      0.00000000	      0.00000000	    115.91187151	    -15.19562829	      1.00583334	     57.84453071	      1.00957752	     12.07635732	      0.00000000	      0.00000000	    -22.77177136	     -2.41092816	     -0.84770956	     71.87360756	     -0.86291064	      2.78250204	     13.46995859	     39.11288413	      0.00000000	      0.00000000	     74.34095613	     -5.07563776	     -1.22192226	     13.03449847	     36.80805003	      0.00000000	      0.00000000
